
<svg width="393" height="161" viewBox="0 0 393 161" fill="none" xmlns="http://www.w3.org/2000/svg">
<path fill-rule="evenodd" clip-rule="evenodd" d="M93.0486 116.659H93.3699L93.0486 117.14V116.659ZM93.0486 116.659C88.2301 115.534 79.2355 108.306 76.3443 104.773C75.7018 103.97 74.8987 103.327 74.2563 102.524C71.5257 99.7936 69.1164 96.5812 67.0284 93.3688C63.4948 88.3897 61.2461 82.4467 58.9975 76.8251C57.07 71.5247 55.4639 66.3849 54.3395 60.9239C53.6971 58.0327 53.8577 57.069 51.4484 55.3022L42.1325 47.9137C41.1688 47.2713 40.687 46.6288 39.7232 45.9863C38.1171 44.862 36.8321 43.4164 34.9047 42.4527C34.9047 57.069 33.7804 65.903 42.4538 79.8769L45.8267 84.856C46.4692 85.8197 46.7905 86.4622 47.5936 87.4259L51.2878 92.0839C51.9303 93.0476 52.4121 93.2082 53.2152 94.1719L59.4793 100.436C64.2979 104.13 69.1165 107.664 74.2563 110.716L90.1575 119.871C79.8779 119.871 70.0802 115.213 61.8886 109.752C60.2824 108.788 58.355 107.503 57.0701 106.54L49.1998 98.9905C48.3967 98.0268 48.3967 97.8661 47.5936 96.9024C43.0962 92.2445 39.402 86.6228 35.7078 81.3224C34.7441 79.8769 32.3348 79.5556 30.7286 78.9131L15.9517 73.6127C14.8274 73.1309 14.3455 72.9703 13.0605 72.649C14.8274 80.0375 19.8065 90.3171 24.3038 96.4206C33.941 109.27 54.3395 116.98 69.9195 120.674C78.1111 122.762 88.5513 123.886 97.3854 123.886C99.4734 123.886 99.634 124.208 101.401 124.208C101.401 121.798 97.8672 109.431 97.3854 98.8299V92.4051C97.3854 88.8715 97.8672 85.9804 98.6703 82.768C101.722 70.561 110.877 57.2296 119.711 48.5562L126.779 40.8465V3.90421C123.727 5.99226 112.644 16.5931 110.235 19.4842L95.9398 38.2766C84.054 57.5509 85.339 79.8769 91.9243 100.757C92.2456 101.882 92.5668 103.327 92.888 104.452C93.3699 105.736 93.8517 106.861 94.173 108.306L96.9035 115.855C94.9761 115.213 91.7637 109.913 90.6394 108.306C89.9969 107.182 89.515 106.54 88.8726 105.255C80.0385 90.7989 78.9142 75.5401 83.0903 58.8358C83.7327 56.4265 84.2146 53.696 85.0177 51.2867C85.8208 48.8775 86.6239 46.3075 87.427 44.0589C87.7482 42.7739 88.2301 41.489 88.5513 40.3647C89.0332 39.0797 89.3544 38.2766 89.8363 36.9917C91.4424 32.4943 90.9606 33.9399 89.8363 29.7638L83.2509 7.75907C82.4478 5.51041 81.3235 2.77989 81.0022 0.370605C77.9505 2.61927 69.1164 18.5205 67.0284 22.8572C59.9612 36.9917 57.8731 64.2968 65.7435 80.3587C69.1164 87.5866 72.9713 93.6901 77.7899 99.6329L81.4841 103.97C83.7328 107.182 91.6031 114.57 93.0486 116.659Z" fill="#0B5F73"/>
<path fill-rule="evenodd" clip-rule="evenodd" d="M6.79645 130.954C4.54778 140.591 2.62037 150.388 0.371704 159.865C2.29913 159.865 15.1486 155.689 18.0398 155.046C23.822 153.601 31.2105 151.834 36.9928 151.192C39.2414 151.031 41.8113 150.87 43.7388 150.549C45.9874 150.067 49.0392 150.71 51.2878 150.388C56.267 149.746 53.0546 150.388 58.0338 150.388C60.1219 150.388 63.013 150.549 65.101 150.87C69.1165 151.513 73.9351 152.155 77.9505 153.119C81.8054 154.243 85.9815 155.207 89.8363 156.492C93.2093 157.616 98.3491 158.741 101.401 160.347C104.453 155.689 112.323 149.104 119.39 150.388C126.136 151.513 132.722 155.85 137.861 160.347C139.789 159.223 142.359 158.741 144.607 157.777C153.602 154.243 171.752 149.585 181.55 147.979C186.368 147.176 193.596 145.57 198.415 145.57L197.933 145.249C195.684 144.124 178.98 144.124 176.089 144.124C165.166 144.124 147.659 148.14 137.861 152.798C137.219 151.673 137.219 151.834 136.095 151.031C133.685 149.264 130.473 145.249 125.172 143.161C120.836 141.394 117.623 141.073 112.965 143C109.432 144.446 103.489 148.461 101.08 150.87L98.9916 152.798C95.7792 151.192 79.5567 146.694 76.6656 146.212C53.0546 141.394 39.0808 142.036 16.4336 147.819C14.988 148.14 13.3818 148.782 11.9363 148.782L13.2212 143C13.3818 142.036 13.7031 141.073 13.8637 140.109C14.3455 137.378 14.1849 138.021 18.0398 137.057C46.148 129.99 62.6917 129.508 91.1213 138.021L102.204 141.233C96.4217 136.415 92.5668 132.399 84.5359 129.026C75.22 125.332 60.2825 122.923 50.3241 124.529L43.7388 125.011C37.314 125.332 19.9672 128.384 12.7394 129.829C11.1332 130.151 8.72387 130.954 6.79645 130.954Z" fill="#0B5F73"/>
<path fill-rule="evenodd" clip-rule="evenodd" d="M188.777 95.2963C188.777 99.9542 188.135 100.757 183.959 100.757C182.031 100.757 171.752 101.239 170.467 99.9542C169.343 98.8299 169.664 90.3171 169.664 88.0685C169.664 85.3379 171.752 84.8561 174.482 84.8561H185.565V77.7889C178.658 77.7889 169.664 76.6645 165.809 80.1981C164.363 81.6437 162.597 84.053 162.597 86.141C162.597 94.4932 161.312 100.918 165.488 105.094C167.094 106.7 168.861 107.985 171.752 107.985H186.368C188.938 107.985 191.669 106.379 193.114 105.094C194.881 103.488 196.005 101.239 196.005 98.0268V65.1H188.777V95.2963ZM296.553 77.7889V67.8305H289.003V77.7889H279.366V84.8561H289.003V107.985H296.553V84.8561H309.241V77.7889H296.553ZM314.06 71.846H321.127V65.1H314.06V71.846ZM130.794 91.6021H153.763V85.3379C153.763 84.3742 153.602 84.2136 152.638 84.2136H130.794V91.6021ZM314.06 107.985H321.127V77.7889H314.06V107.985ZM327.552 88.5503C327.552 94.4932 326.749 100.757 329.961 104.612C331.246 106.218 334.459 107.985 337.028 107.985H357.748V100.757H339.117C337.35 100.757 336.868 100.275 335.422 99.9542C334.78 97.0631 334.78 88.7109 335.422 85.6592C342.008 84.2136 350.842 84.8561 357.748 84.8561V77.7889H337.51C331.407 77.7889 327.552 82.6074 327.552 88.5503ZM202.269 94.0113C202.269 99.9542 205 104.291 209.658 106.54C214.155 108.949 225.72 107.985 232.466 107.985C235.036 107.985 236.16 105.736 236.16 103.167V77.7889H228.611V100.757C206.927 100.757 209.818 102.524 209.818 77.7889H202.269V94.0113ZM362.567 85.6592C362.567 90.9596 365.619 94.4932 370.116 94.8144C374.774 95.1357 381.359 94.0113 384.732 95.6175C385.535 97.3843 385.696 98.1874 384.732 99.9542C383.447 101.4 365.94 100.757 362.888 100.757V107.985H383.126C385.535 107.985 388.266 106.54 389.711 105.255C395.172 100.436 393.084 90.6384 386.338 88.0685C383.447 87.1047 374.453 87.7472 370.437 87.7472C369.634 86.141 369.152 84.8561 372.846 84.8561H389.23V77.7889H370.919C366.582 77.7889 362.567 81.4831 362.567 85.6592ZM263.465 100.757C256.559 100.757 255.755 101.4 249.973 99.9542C249.331 97.0631 249.331 88.7109 249.973 85.6592C253.667 84.8561 262.823 85.3379 267.159 85.3379C269.087 88.3897 268.284 91.6021 268.284 97.7056C268.284 100.275 266.196 100.757 263.465 100.757ZM242.103 87.2654C242.103 93.8507 240.979 100.918 244.673 104.933C245.958 106.218 249.009 107.985 251.579 107.985H266.356C269.087 107.985 272.46 105.897 273.584 104.13C276.636 99.7936 276.957 85.9804 273.584 81.6437C272.139 79.8769 269.569 77.7889 266.356 77.7889C258.807 77.7889 249.331 76.5039 245.155 80.5194C243.709 81.8043 242.103 84.6955 242.103 87.2654ZM120.354 71.846V97.7056C120.354 103.488 124.851 107.985 129.991 107.985H156.975V100.757H131.918C130.312 100.757 129.83 100.275 128.385 99.9542C127.421 96.0994 127.903 80.5194 127.903 75.3796H156.975V67.8305H124.369C122.121 67.8305 120.354 69.5973 120.354 71.846Z" fill="#0B5F73"/>
</svg>
